<?xml version="1.0" standalone="no"?>
<!DOCTYPE svg PUBLIC "-//W3C//DTD SVG 20010904//EN"
 "http://www.w3.org/TR/2001/REC-SVG-20010904/DTD/svg10.dtd">
<svg version="1.0" xmlns="http://www.w3.org/2000/svg"
 width="1900.000000pt" height="2035.000000pt" viewBox="0 0 1900.000000 2035.000000"
 preserveAspectRatio="xMidYMid meet">

<g transform="translate(0.000000,2035.000000) scale(0.100000,-0.100000)"
fill="#000000" stroke="none">
<path d="M11190 20170 c-179 -285 -507 -747 -760 -1069 -268 -340 -788 -951
-810 -951 -6 0 -10 -5 -10 -11 0 -11 -209 -242 -440 -484 -312 -327 -469 -567
-578 -887 -138 -400 -163 -878 -71 -1368 67 -357 219 -791 411 -1173 116 -232
287 -525 300 -512 3 3 -1 31 -8 63 -25 104 -73 408 -90 564 -25 228 -23 552 4
743 40 276 134 592 237 796 14 27 25 51 25 54 -1 10 102 209 163 315 33 58
139 236 236 395 367 607 519 887 706 1310 54 120 98 224 99 230 1 5 10 25 19
43 10 17 15 32 12 32 -3 0 2 15 12 33 9 17 18 37 19 42 1 6 34 91 74 190 246
613 419 1175 475 1537 9 58 15 119 13 135 -3 27 -5 26 -38 -27z"/>
<path d="M15530 19243 c-810 -471 -1386 -888 -1970 -1423 -686 -630 -1313
-1388 -1752 -2120 -487 -812 -775 -1470 -993 -2275 -79 -290 -174 -766 -161
-801 3 -7 1 -16 -5 -20 -6 -3 -9 -20 -8 -38 1 -17 -2 -39 -6 -49 -4 -9 -5 -29
-2 -42 2 -14 0 -28 -5 -31 -5 -3 -9 -22 -8 -43 1 -20 1 -40 0 -46 -1 -5 -1
-29 0 -52 1 -23 -1 -47 -4 -52 -14 -22 -24 -790 -11 -811 4 -6 5 -36 4 -68 -1
-32 1 -64 5 -71 4 -6 7 -28 6 -49 -1 -20 -1 -41 0 -47 1 -5 1 -25 0 -42 -1
-18 2 -38 6 -45 5 -7 7 -27 5 -44 -1 -18 3 -35 8 -39 6 -3 9 -10 6 -15 -9 -15
33 -244 80 -435 77 -313 181 -584 378 -980 131 -265 254 -529 342 -735 32 -74
68 -157 80 -185 63 -137 269 -682 279 -738 3 -12 5 -23 7 -24 1 -2 3 -7 4 -13
1 -5 4 -12 5 -15 1 -3 4 -9 5 -15 1 -5 4 -12 5 -15 1 -3 4 -9 5 -15 1 -5 4
-12 5 -15 1 -3 4 -9 5 -15 1 -5 4 -12 5 -15 1 -3 4 -9 5 -15 1 -5 3 -11 5 -12
1 -2 3 -10 5 -18 1 -8 28 -100 59 -203 189 -636 298 -1226 313 -1692 12 -394
-65 -708 -263 -1065 -372 -675 -1109 -1162 -1944 -1284 -706 -104 -1433 51
-2015 428 -357 232 -624 518 -827 886 -37 66 -118 249 -123 279 -2 9 -4 17 -5
19 -2 1 -4 7 -5 12 -1 6 -4 12 -5 15 -1 3 -4 10 -5 15 -1 6 -4 12 -5 15 -1 3
-4 10 -5 15 -1 6 -4 13 -5 18 -1 4 -2 11 -1 16 1 4 -4 14 -10 22 -6 8 -8 14
-4 14 4 0 2 6 -4 13 -6 8 -8 17 -5 20 3 3 2 12 -2 19 -4 7 -9 19 -9 28 -1 8
-7 40 -13 70 -7 30 -23 145 -36 255 -99 799 -94 1479 15 2175 96 609 249 1106
499 1615 140 286 336 601 451 726 21 23 37 44 34 47 -14 14 -356 -218 -471
-320 -102 -90 -205 -199 -309 -328 -71 -88 -175 -242 -175 -260 0 -5 -4 -10
-8 -10 -5 0 -19 -21 -32 -47 -13 -27 -26 -50 -29 -53 -24 -20 -180 -342 -239
-490 -194 -490 -315 -1065 -352 -1670 -5 -91 -10 -208 -11 -260 0 -106 -6
-102 -40 30 -57 219 -83 474 -83 810 1 411 39 778 130 1245 85 434 230 979
359 1347 68 194 128 514 167 888 17 166 17 748 0 895 -59 508 -183 938 -387
1344 -72 145 -182 334 -196 339 -5 2 -9 10 -9 17 0 7 -4 15 -8 17 -4 2 -36 44
-69 93 -142 207 -440 548 -618 705 -526 465 -1190 845 -1950 1114 -269 95
-733 225 -766 214 -6 -2 40 -35 103 -72 119 -73 285 -185 379 -258 183 -140
457 -389 609 -553 52 -55 122 -130 156 -167 153 -164 353 -463 486 -723 45
-88 81 -162 81 -165 0 -3 4 -16 10 -30 6 -14 11 -27 11 -30 1 -3 20 -57 43
-120 131 -358 186 -666 186 -1045 1 -254 -11 -382 -59 -625 -40 -203 -76 -339
-140 -523 -25 -73 -46 -136 -48 -142 -1 -5 -8 -20 -14 -32 -7 -13 -10 -23 -7
-23 3 0 -2 -11 -11 -25 -9 -14 -13 -25 -10 -25 4 0 1 -10 -6 -22 -6 -13 -13
-28 -14 -33 -1 -6 -52 -119 -114 -250 -387 -824 -629 -1410 -845 -2046 -79
-234 -173 -526 -179 -563 -3 -11 -6 -23 -7 -26 -1 -3 -3 -9 -4 -15 -2 -5 -4
-13 -5 -17 -1 -5 -4 -12 -5 -18 -1 -5 -3 -11 -4 -12 -2 -2 -5 -14 -7 -28 -3
-14 -20 -77 -39 -140 -159 -536 -311 -1309 -361 -1830 -21 -222 -15 -831 10
-1035 53 -445 162 -898 306 -1275 29 -74 53 -139 54 -145 2 -5 8 -23 15 -40 7
-16 12 -31 12 -32 -2 -17 203 -425 282 -563 65 -113 176 -292 187 -300 3 -3
32 -43 65 -90 92 -133 239 -324 350 -455 395 -465 819 -836 1381 -1208 655
-432 1317 -713 2176 -921 360 -88 650 -135 1088 -178 218 -21 1107 -18 1330 5
571 59 1043 156 1590 328 514 162 907 340 1400 632 919 545 1688 1309 2172
2157 416 728 638 1427 709 2227 16 184 6 806 -15 973 -39 301 -87 551 -151
790 -93 341 -306 1617 -389 2320 -87 741 -120 1223 -120 1795 0 488 18 759 74
1098 64 383 182 713 306 855 25 28 41 52 36 52 -5 0 -45 -27 -87 -60 -477
-365 -835 -961 -1019 -1695 -108 -433 -155 -833 -156 -1318 l-1 -232 -45 110
c-94 230 -336 916 -347 981 -1 10 -6 25 -10 32 -5 6 -5 12 -1 12 3 0 1 7 -6
15 -6 8 -9 19 -6 24 4 5 2 12 -4 16 -6 4 -8 10 -5 15 3 5 1 11 -5 15 -6 4 -8
10 -5 15 3 5 1 11 -5 15 -6 4 -8 11 -5 16 4 5 3 15 -2 22 -4 6 -8 17 -9 22 -1
6 -24 91 -52 190 -233 827 -366 1572 -424 2370 -16 226 -16 924 0 1135 59 756
186 1372 413 2000 33 91 61 170 63 175 1 6 8 20 14 33 7 12 10 22 6 22 -3 0 1
11 10 25 9 14 14 25 11 25 -3 0 2 15 12 33 9 17 18 37 19 42 4 23 121 270 196
415 126 243 339 589 438 710 20 25 74 94 120 153 47 60 120 150 163 200 82 95
339 360 416 428 24 22 42 41 40 43 -2 2 -47 -21 -99 -51z"/>
</g>
</svg>
