<?xml version="1.0" standalone="no"?>
<!DOCTYPE svg PUBLIC "-//W3C//DTD SVG 20010904//EN"
 "http://www.w3.org/TR/2001/REC-SVG-20010904/DTD/svg10.dtd">
<svg version="1.0" xmlns="http://www.w3.org/2000/svg"
 width="2725.000000pt" height="994.000000pt" viewBox="0 0 2725.000000 994.000000"
 preserveAspectRatio="xMidYMid meet">

<g transform="translate(0.000000,994.000000) scale(0.100000,-0.100000)"
fill="#000000" stroke="none">
<path d="M14410 8914 c-422 -507 -418 -501 -460 -589 -58 -118 -73 -195 -73
-355 1 -111 5 -152 27 -235 30 -118 90 -244 144 -305 l39 -44 6 154 c12 298
72 473 301 875 180 314 262 508 299 700 22 113 27 155 19 154 -4 0 -140 -160
-302 -355z"/>
<path d="M15855 8895 c-131 -65 -250 -159 -426 -334 -170 -170 -324 -357 -453
-551 -168 -251 -258 -429 -340 -669 -147 -430 -152 -745 -18 -1116 22 -60 86
-218 142 -350 113 -265 206 -534 241 -695 20 -88 23 -135 23 -290 0 -174 -1
-190 -27 -265 -80 -240 -260 -390 -552 -461 -146 -36 -346 -38 -469 -5 -309
83 -498 307 -573 680 -14 67 -18 136 -18 316 1 324 26 442 160 745 88 198 117
271 111 277 -9 9 -100 -61 -161 -122 -105 -107 -146 -191 -230 -478 -29 -100
-59 -195 -66 -212 l-13 -30 -4 35 c-5 48 15 276 34 385 8 50 40 196 69 325 84
362 90 402 89 595 0 151 -4 181 -27 270 -34 127 -116 294 -200 405 -75 98
-241 262 -341 337 -170 126 -341 207 -481 225 -78 11 -87 10 -103 -6 -11 -12
-13 -20 -5 -23 47 -18 213 -142 284 -212 319 -320 339 -722 69 -1406 -26 -66
-86 -214 -133 -330 -119 -291 -173 -456 -207 -625 -124 -618 3 -1163 367
-1576 546 -618 1560 -847 2424 -548 611 210 1071 701 1189 1268 62 294 52 549
-45 1236 -91 647 -105 994 -52 1328 9 55 10 82 3 82 -6 0 -40 -31 -77 -68
-114 -117 -187 -296 -229 -566 -12 -72 -24 -151 -28 -176 l-7 -45 -48 93
c-140 271 -219 674 -221 1122 0 254 11 385 50 580 51 254 122 423 281 671 99
155 139 229 120 229 -7 0 -53 -20 -102 -45z"/>
<path d="M1293 7690 c-53 -11 -87 -33 -102 -66 -15 -34 -17 -4356 -2 -4397 22
-58 34 -60 521 -70 521 -11 562 -7 621 52 20 20 42 54 48 76 8 28 13 489 18
1572 l6 1531 106 8 c58 4 342 3 631 -2 289 -4 608 -8 710 -9 178 0 187 1 235
25 98 49 107 109 103 658 -3 364 -4 389 -23 426 -30 60 -61 77 -156 88 -94 11
-454 3 -594 -13 -270 -32 -490 -136 -674 -319 -142 -140 -253 -307 -303 -455
-15 -44 -28 -78 -29 -75 -1 3 -4 190 -8 415 l-6 410 -25 50 c-20 40 -35 55
-75 75 l-50 25 -455 2 c-250 1 -474 -2 -497 -7z"/>
<path d="M10120 7589 c-680 -6 -710 -8 -902 -73 -392 -133 -581 -431 -638
-1006 -11 -114 -26 -2186 -23 -3260 1 -795 18 -1133 58 -1196 21 -32 76 -63
131 -73 28 -5 236 -6 479 -2 408 7 432 8 477 28 86 39 79 -74 78 1313 l-1
1228 68 8 c38 4 264 3 503 -1 731 -15 876 -13 939 9 71 25 125 79 145 147 11
35 16 93 16 168 0 206 -29 308 -92 330 -23 8 -253 15 -733 22 -385 5 -733 12
-772 15 l-73 6 0 668 0 668 28 6 c135 28 790 35 1447 14 504 -15 533 -14 594
38 61 51 66 84 65 439 0 262 -3 333 -17 394 -9 41 -20 78 -24 82 -12 12 -449
28 -813 31 -179 2 -602 0 -940 -3z"/>
<path d="M18365 7549 c-760 -72 -1400 -643 -1569 -1400 -115 -515 -10 -1023
299 -1445 79 -108 290 -315 405 -396 203 -144 483 -262 736 -310 156 -29 473
-32 629 -5 407 71 712 224 967 484 226 231 383 537 455 888 30 149 42 446 24
601 -38 324 -143 615 -312 870 -96 143 -295 345 -429 433 -348 231 -746 323
-1205 280z m415 -966 c305 -71 533 -349 581 -709 24 -179 -7 -359 -88 -524
-39 -79 -62 -110 -138 -186 -134 -136 -262 -198 -470 -230 -273 -43 -542 50
-719 247 -105 117 -190 298 -216 462 -16 94 -8 278 14 362 23 83 85 209 139
280 184 244 574 374 897 298z"/>
<path d="M24015 7519 c-431 -47 -865 -229 -1190 -501 -425 -355 -693 -832
-771 -1373 -23 -162 -23 -458 0 -620 70 -486 285 -916 631 -1260 346 -345 785
-561 1265 -621 151 -19 438 -18 586 1 901 118 1616 785 1834 1710 40 172 54
303 54 510 -1 215 -14 329 -59 508 -214 847 -924 1499 -1775 1632 -127 19
-450 27 -575 14z m488 -1179 c210 -53 371 -157 503 -323 170 -215 253 -479
241 -766 -21 -527 -368 -884 -922 -951 -189 -23 -373 8 -542 90 -282 137 -472
397 -543 740 -19 90 -21 127 -17 255 4 106 11 173 25 227 114 429 434 690 922
752 71 9 258 -4 333 -24z"/>
<path d="M20865 7465 c-152 -24 -252 -63 -360 -140 -170 -121 -275 -315 -287
-525 l-3 -65 661 -3 662 -2 6 22 c3 13 6 179 6 369 l0 346 -77 7 c-127 10
-522 5 -608 -9z"/>
<path d="M6100 7464 c-14 -2 -65 -9 -115 -15 -123 -15 -330 -69 -456 -119
-645 -255 -1140 -827 -1315 -1518 -47 -184 -65 -336 -65 -537 0 -343 74 -656
229 -959 111 -218 244 -395 522 -696 84 -91 202 -222 262 -291 108 -126 167
-177 223 -196 40 -13 1164 -8 1177 5 14 14 -32 96 -99 178 -30 36 -140 155
-244 263 -212 222 -306 331 -340 396 -21 39 -22 46 -9 58 8 8 585 395 1283
861 697 466 1267 850 1267 854 0 4 -5 36 -10 72 -37 235 -201 569 -400 820
-91 115 -292 308 -417 402 -303 228 -658 366 -1061 413 -113 13 -365 18 -432
9z m363 -915 c291 -25 572 -143 707 -296 38 -44 100 -138 100 -155 0 -3 -42
-28 -92 -56 -131 -69 -325 -194 -624 -400 -143 -98 -380 -262 -529 -364 -433
-298 -700 -463 -804 -498 -53 -17 -53 -18 -80 114 -150 712 41 1244 538 1505
164 85 331 134 520 151 126 11 135 11 264 -1z"/>
<path d="M20890 6450 c-186 -18 -309 -41 -315 -59 -29 -93 -50 -1392 -36
-2269 10 -567 23 -917 35 -929 14 -14 200 -35 361 -41 320 -12 683 12 718 47
31 31 48 454 54 1366 6 974 -10 1572 -48 1763 -10 51 -14 55 -55 74 -87 38
-170 49 -399 53 -121 2 -263 0 -315 -5z"/>
<path d="M17225 4163 c-10 -174 1 -417 25 -532 47 -227 159 -357 365 -424 120
-39 253 -54 613 -67 479 -17 644 -56 780 -184 161 -150 129 -337 -85 -507 -40
-32 -102 -74 -138 -94 -36 -20 -65 -41 -65 -45 0 -21 131 -147 197 -191 82
-53 205 -101 309 -119 98 -18 296 -8 395 19 318 86 542 313 621 628 32 127 32
334 0 453 -89 327 -325 538 -689 614 -179 38 -235 40 -998 41 -821 1 -820 1
-942 61 -107 52 -220 187 -333 397 -23 42 -43 77 -45 77 -2 0 -6 -57 -10 -127z"/>
<path d="M21181 1510 c-82 -20 -118 -77 -128 -199 l-6 -81 -44 0 c-48 0 -59
-13 -49 -55 6 -22 12 -25 51 -25 l45 0 2 -252 3 -253 50 0 50 0 3 253 2 252
70 0 70 0 0 40 0 40 -70 0 -70 0 0 68 c0 111 36 148 123 125 23 -6 44 -10 46
-7 10 10 3 66 -10 79 -18 17 -94 26 -138 15z"/>
<path d="M24630 1076 l0 -436 50 0 50 0 -2 433 -3 432 -47 3 -48 3 0 -435z"/>
<path d="M20556 1448 c-19 -26 -20 -51 -6 -79 8 -14 21 -19 53 -19 52 0 67 13
67 60 0 46 -15 60 -61 60 -28 0 -42 -6 -53 -22z"/>
<path d="M19750 1058 c0 -293 3 -397 12 -406 9 -9 68 -12 205 -12 l193 0 6 24
c15 60 13 61 -154 64 l-152 3 -2 357 -3 357 -52 3 -53 3 0 -393z"/>
<path d="M23203 1384 c-9 -4 -13 -30 -13 -79 l0 -74 -47 -3 c-48 -3 -48 -3
-48 -38 0 -35 0 -35 48 -38 l47 -3 0 -197 c0 -185 1 -201 23 -242 30 -61 72
-82 156 -77 49 2 67 8 78 23 18 25 14 80 -7 75 -108 -26 -135 -7 -145 101 -3
40 -5 127 -3 193 l3 120 80 5 80 5 0 35 0 35 -80 5 -80 5 -5 75 -5 75 -35 2
c-19 1 -41 0 -47 -3z"/>
<path d="M21803 1241 c-141 -36 -211 -153 -200 -335 7 -132 45 -203 131 -249
35 -19 56 -22 151 -22 91 0 118 4 158 22 43 20 47 25 47 57 0 42 -15 46 -76
20 -59 -25 -180 -24 -223 1 -51 30 -74 67 -79 130 l-4 55 196 0 196 0 10 26
c11 27 1 116 -18 165 -16 40 -61 88 -103 110 -44 22 -138 32 -186 20z m147
-100 c32 -22 60 -77 60 -118 l0 -33 -150 0 -150 0 0 25 c0 37 23 86 53 114 46
42 135 48 187 12z"/>
<path d="M22594 1236 c-88 -28 -124 -74 -124 -155 0 -86 23 -113 146 -171 118
-57 142 -82 128 -133 -19 -67 -129 -86 -224 -37 -51 26 -70 21 -70 -19 0 -41
31 -68 95 -82 186 -42 329 56 301 206 -10 52 -61 97 -154 134 -111 45 -141 81
-117 138 20 48 79 61 154 36 91 -32 86 -32 86 12 0 36 -3 42 -37 58 -49 24
-133 30 -184 13z"/>
<path d="M25313 1241 c-141 -36 -211 -153 -200 -335 7 -132 45 -203 131 -249
35 -19 56 -22 151 -22 91 0 118 4 158 22 43 20 47 25 47 57 0 42 -15 46 -76
20 -59 -25 -180 -24 -223 1 -51 30 -74 67 -79 130 l-4 55 196 0 196 0 10 26
c11 27 1 116 -18 165 -16 40 -61 88 -103 110 -44 22 -138 32 -186 20z m147
-100 c32 -22 60 -77 60 -118 l0 -33 -150 0 -150 0 0 25 c0 37 23 86 53 114 46
42 135 48 187 12z"/>
<path d="M20567 1233 c-4 -3 -7 -138 -7 -300 l0 -293 50 0 50 0 0 294 c0 259
-2 295 -16 300 -21 8 -69 8 -77 -1z"/>
<path d="M23765 1230 c-6 -9 163 -481 202 -566 13 -29 12 -37 -27 -134 -45
-112 -44 -120 16 -120 16 0 38 6 47 13 19 14 300 785 293 804 -7 17 -80 17
-95 -1 -6 -7 -43 -107 -81 -220 -39 -114 -74 -215 -79 -223 -6 -12 -12 -5 -24
28 -112 321 -138 392 -147 409 -8 15 -21 20 -55 20 -24 0 -47 -5 -50 -10z"/>
</g>
</svg>
